<?xml version="1.0" encoding="UTF-8" standalone="no"?>
<!DOCTYPE svg PUBLIC "-//W3C//DTD SVG 1.1//EN" "http://www.w3.org/Graphics/SVG/1.1/DTD/svg11.dtd">
<svg width="100%" height="100%" viewBox="0 0 715 379" version="1.1" xmlns="http://www.w3.org/2000/svg" xmlns:xlink="http://www.w3.org/1999/xlink" xml:space="preserve" xmlns:serif="http://www.serif.com/" style="fill-rule:evenodd;clip-rule:evenodd;stroke-linejoin:round;stroke-miterlimit:2;">
    <g transform="matrix(1,0,0,1,0,-516)">
        <g id="Artboard3" transform="matrix(1.53736,0,0,1,-380.583,-0.856589)">
            <rect x="247.557" y="516.857" width="464.832" height="378.956" style="fill:none;"/>
            <g transform="matrix(12.0333,0,0,18.4995,-3277.02,-6051.98)">
                <g transform="matrix(12,0,0,12,301.518,368.292)">
                    <path d="M0.298,0.012C0.239,0.012 0.189,0.001 0.148,-0.021C0.107,-0.042 0.073,-0.072 0.045,-0.111L0.106,-0.161C0.133,-0.126 0.162,-0.101 0.193,-0.085C0.224,-0.068 0.26,-0.06 0.301,-0.06C0.351,-0.06 0.389,-0.072 0.417,-0.095C0.444,-0.118 0.457,-0.151 0.457,-0.193C0.457,-0.228 0.447,-0.254 0.427,-0.273C0.407,-0.292 0.374,-0.305 0.327,-0.313L0.249,-0.326C0.185,-0.337 0.139,-0.359 0.111,-0.393C0.083,-0.426 0.069,-0.467 0.069,-0.516C0.069,-0.579 0.09,-0.627 0.131,-0.66C0.172,-0.693 0.229,-0.71 0.302,-0.71C0.408,-0.71 0.486,-0.674 0.536,-0.603L0.477,-0.552C0.456,-0.58 0.431,-0.601 0.404,-0.616C0.376,-0.631 0.342,-0.638 0.301,-0.638C0.254,-0.638 0.217,-0.628 0.192,-0.608C0.167,-0.587 0.154,-0.557 0.154,-0.518C0.154,-0.485 0.164,-0.459 0.184,-0.44C0.203,-0.421 0.237,-0.407 0.285,-0.399L0.36,-0.386C0.481,-0.365 0.542,-0.301 0.542,-0.195C0.542,-0.13 0.521,-0.08 0.478,-0.043C0.435,-0.006 0.375,0.012 0.298,0.012Z" style="fill:rgb(250,148,165);fill-rule:nonzero;"/>
                </g>
                <g transform="matrix(12,0,0,12,308.718,368.292)">
                    <path d="M0.095,-0.698L0.29,-0.698C0.375,-0.698 0.438,-0.669 0.481,-0.61C0.523,-0.551 0.544,-0.464 0.544,-0.349C0.544,-0.234 0.523,-0.147 0.481,-0.088C0.438,-0.029 0.375,-0 0.29,-0L0.095,-0L0.095,-0.698ZM0.286,-0.073C0.341,-0.073 0.383,-0.092 0.412,-0.131C0.441,-0.17 0.455,-0.224 0.455,-0.295L0.455,-0.403C0.455,-0.474 0.441,-0.528 0.412,-0.567C0.383,-0.606 0.341,-0.625 0.286,-0.625L0.179,-0.625L0.179,-0.073L0.286,-0.073Z" style="fill:rgb(250,148,165);fill-rule:nonzero;"/>
                </g>
                <g transform="matrix(12,0,0,12,315.918,368.292)">
                    <path d="M0.298,0.012C0.239,0.012 0.189,0.001 0.148,-0.021C0.107,-0.042 0.073,-0.072 0.045,-0.111L0.106,-0.161C0.133,-0.126 0.162,-0.101 0.193,-0.085C0.224,-0.068 0.26,-0.06 0.301,-0.06C0.351,-0.06 0.389,-0.072 0.417,-0.095C0.444,-0.118 0.457,-0.151 0.457,-0.193C0.457,-0.228 0.447,-0.254 0.427,-0.273C0.407,-0.292 0.374,-0.305 0.327,-0.313L0.249,-0.326C0.185,-0.337 0.139,-0.359 0.111,-0.393C0.083,-0.426 0.069,-0.467 0.069,-0.516C0.069,-0.579 0.09,-0.627 0.131,-0.66C0.172,-0.693 0.229,-0.71 0.302,-0.71C0.408,-0.71 0.486,-0.674 0.536,-0.603L0.477,-0.552C0.456,-0.58 0.431,-0.601 0.404,-0.616C0.376,-0.631 0.342,-0.638 0.301,-0.638C0.254,-0.638 0.217,-0.628 0.192,-0.608C0.167,-0.587 0.154,-0.557 0.154,-0.518C0.154,-0.485 0.164,-0.459 0.184,-0.44C0.203,-0.421 0.237,-0.407 0.285,-0.399L0.36,-0.386C0.481,-0.365 0.542,-0.301 0.542,-0.195C0.542,-0.13 0.521,-0.08 0.478,-0.043C0.435,-0.006 0.375,0.012 0.298,0.012Z" style="fill:rgb(250,148,165);fill-rule:nonzero;"/>
                </g>
            </g>
            <g transform="matrix(0.904488,0,0,1.39052,-32.2041,-322.385)">
                <g transform="matrix(36,0,0,36,512.757,825.944)">
                    <path d="M0.298,0.012C0.258,0.012 0.227,0.001 0.206,-0.02C0.185,-0.041 0.174,-0.071 0.174,-0.108C0.174,-0.127 0.177,-0.154 0.184,-0.188L0.224,-0.402L0.068,-0.402L0.087,-0.516L0.391,-0.516L0.314,-0.106L0.331,-0.101L0.471,-0.244L0.551,-0.173L0.49,-0.103C0.455,-0.064 0.423,-0.035 0.393,-0.016C0.363,0.003 0.331,0.012 0.298,0.012ZM0.436,-0.745L0.409,-0.587L0.25,-0.587L0.277,-0.745L0.436,-0.745Z" style="fill:rgb(37,180,151);fill-rule:nonzero;"/>
                </g>
                <g transform="matrix(36,0,0,36,534.357,825.944)">
                    <path d="M0.025,-0L0.111,-0.516L0.257,-0.516L0.237,-0.393L0.242,-0.393C0.263,-0.438 0.286,-0.471 0.312,-0.494C0.338,-0.517 0.371,-0.528 0.41,-0.528C0.457,-0.528 0.493,-0.514 0.516,-0.486C0.539,-0.458 0.551,-0.422 0.551,-0.379C0.551,-0.354 0.547,-0.319 0.54,-0.275L0.494,-0L0.348,-0L0.397,-0.293C0.398,-0.296 0.399,-0.303 0.401,-0.316C0.403,-0.328 0.404,-0.341 0.404,-0.355C0.404,-0.371 0.399,-0.385 0.39,-0.398C0.38,-0.41 0.365,-0.416 0.344,-0.416C0.327,-0.416 0.313,-0.412 0.3,-0.405C0.287,-0.397 0.275,-0.385 0.263,-0.369C0.237,-0.334 0.221,-0.301 0.216,-0.269L0.171,-0L0.025,-0Z" style="fill:rgb(37,180,151);fill-rule:nonzero;"/>
                </g>
                <g transform="matrix(36,0,0,36,577.557,825.944)">
                    <path d="M0.037,-0L0.154,-0.698L0.406,-0.698C0.467,-0.698 0.514,-0.681 0.547,-0.647C0.58,-0.613 0.596,-0.568 0.596,-0.513C0.596,-0.46 0.586,-0.415 0.566,-0.376C0.545,-0.337 0.516,-0.308 0.479,-0.287C0.441,-0.266 0.397,-0.256 0.347,-0.256L0.228,-0.256L0.185,-0L0.037,-0ZM0.248,-0.376L0.326,-0.376C0.36,-0.376 0.386,-0.382 0.403,-0.395C0.42,-0.408 0.43,-0.429 0.435,-0.459L0.44,-0.489C0.441,-0.497 0.442,-0.506 0.442,-0.516C0.442,-0.539 0.436,-0.555 0.423,-0.565C0.41,-0.574 0.389,-0.579 0.36,-0.579L0.282,-0.579L0.248,-0.376Z" style="fill:rgb(37,180,151);fill-rule:nonzero;"/>
                </g>
                <g transform="matrix(36,0,0,36,599.157,825.944)">
                    <path d="M0.217,0.212C0.166,0.212 0.125,0.207 0.092,0.196C0.059,0.185 0.031,0.165 0.006,0.136L0.093,0.046C0.122,0.081 0.162,0.099 0.213,0.099C0.24,0.099 0.262,0.095 0.279,0.087C0.296,0.078 0.311,0.063 0.323,0.041C0.335,0.018 0.344,-0.013 0.351,-0.054L0.365,-0.14L0.36,-0.14C0.339,-0.095 0.316,-0.062 0.29,-0.039C0.264,-0.016 0.231,-0.005 0.192,-0.005C0.145,-0.005 0.109,-0.019 0.086,-0.047C0.063,-0.075 0.051,-0.111 0.051,-0.154C0.051,-0.179 0.055,-0.214 0.062,-0.258L0.105,-0.516L0.251,-0.516L0.205,-0.241C0.2,-0.213 0.198,-0.192 0.198,-0.178C0.198,-0.162 0.203,-0.148 0.213,-0.136C0.222,-0.123 0.237,-0.117 0.258,-0.117C0.275,-0.117 0.289,-0.121 0.302,-0.129C0.315,-0.136 0.327,-0.148 0.339,-0.164C0.365,-0.199 0.381,-0.232 0.386,-0.264L0.428,-0.516L0.574,-0.516L0.494,-0.036C0.48,0.047 0.45,0.109 0.403,0.15C0.356,0.191 0.294,0.212 0.217,0.212Z" style="fill:rgb(37,180,151);fill-rule:nonzero;"/>
                </g>
                <g transform="matrix(36,0,0,36,620.757,825.944)">
                    <path d="M0.278,0.012C0.235,0.012 0.204,0.001 0.183,-0.022C0.162,-0.045 0.151,-0.076 0.151,-0.116C0.151,-0.132 0.153,-0.154 0.158,-0.182L0.195,-0.402L0.063,-0.402L0.082,-0.516L0.215,-0.516L0.247,-0.698L0.391,-0.698L0.361,-0.516L0.563,-0.516L0.544,-0.402L0.342,-0.402L0.294,-0.114L0.314,-0.107L0.47,-0.23L0.542,-0.148L0.482,-0.096C0.435,-0.056 0.398,-0.028 0.37,-0.012C0.342,0.004 0.311,0.012 0.278,0.012Z" style="fill:rgb(37,180,151);fill-rule:nonzero;"/>
                </g>
                <g transform="matrix(36,0,0,36,642.357,825.944)">
                    <path d="M0.148,-0.74L0.294,-0.74L0.237,-0.393L0.242,-0.393C0.263,-0.438 0.286,-0.471 0.312,-0.494C0.338,-0.517 0.371,-0.528 0.41,-0.528C0.457,-0.528 0.493,-0.514 0.516,-0.486C0.539,-0.458 0.551,-0.422 0.551,-0.379C0.551,-0.354 0.547,-0.319 0.54,-0.275L0.494,-0L0.348,-0L0.397,-0.293C0.398,-0.296 0.399,-0.303 0.401,-0.316C0.403,-0.328 0.404,-0.341 0.404,-0.355C0.404,-0.371 0.399,-0.385 0.39,-0.398C0.38,-0.41 0.365,-0.416 0.344,-0.416C0.327,-0.416 0.313,-0.412 0.3,-0.405C0.287,-0.397 0.275,-0.385 0.263,-0.369C0.237,-0.334 0.221,-0.301 0.216,-0.269L0.171,-0L0.025,-0L0.148,-0.74Z" style="fill:rgb(37,180,151);fill-rule:nonzero;"/>
                </g>
                <g transform="matrix(36,0,0,36,663.957,825.944)">
                    <path d="M0.265,0.012C0.196,0.012 0.141,-0.008 0.102,-0.048C0.063,-0.087 0.043,-0.141 0.043,-0.21C0.043,-0.275 0.055,-0.331 0.08,-0.379C0.104,-0.427 0.138,-0.464 0.183,-0.49C0.227,-0.515 0.278,-0.528 0.335,-0.528C0.404,-0.528 0.459,-0.508 0.498,-0.469C0.537,-0.429 0.557,-0.375 0.557,-0.306C0.557,-0.241 0.545,-0.185 0.521,-0.137C0.496,-0.089 0.462,-0.052 0.418,-0.027C0.373,-0.001 0.322,0.012 0.265,0.012ZM0.276,-0.097C0.308,-0.097 0.334,-0.107 0.355,-0.126C0.375,-0.145 0.388,-0.173 0.394,-0.209L0.407,-0.287C0.41,-0.307 0.412,-0.321 0.412,-0.328C0.412,-0.358 0.404,-0.381 0.389,-0.396C0.373,-0.411 0.351,-0.419 0.324,-0.419C0.292,-0.419 0.266,-0.409 0.246,-0.39C0.225,-0.371 0.212,-0.343 0.206,-0.307L0.193,-0.229C0.19,-0.209 0.188,-0.195 0.188,-0.188C0.188,-0.158 0.196,-0.135 0.212,-0.12C0.227,-0.105 0.249,-0.097 0.276,-0.097Z" style="fill:rgb(37,180,151);fill-rule:nonzero;"/>
                </g>
                <g transform="matrix(36,0,0,36,685.557,825.944)">
                    <path d="M0.025,-0L0.111,-0.516L0.257,-0.516L0.237,-0.393L0.242,-0.393C0.263,-0.438 0.286,-0.471 0.312,-0.494C0.338,-0.517 0.371,-0.528 0.41,-0.528C0.457,-0.528 0.493,-0.514 0.516,-0.486C0.539,-0.458 0.551,-0.422 0.551,-0.379C0.551,-0.354 0.547,-0.319 0.54,-0.275L0.494,-0L0.348,-0L0.397,-0.293C0.398,-0.296 0.399,-0.303 0.401,-0.316C0.403,-0.328 0.404,-0.341 0.404,-0.355C0.404,-0.371 0.399,-0.385 0.39,-0.398C0.38,-0.41 0.365,-0.416 0.344,-0.416C0.327,-0.416 0.313,-0.412 0.3,-0.405C0.287,-0.397 0.275,-0.385 0.263,-0.369C0.237,-0.334 0.221,-0.301 0.216,-0.269L0.171,-0L0.025,-0Z" style="fill:rgb(37,180,151);fill-rule:nonzero;"/>
                </g>
            </g>
        </g>
    </g>
</svg>
