<?xml version="1.0" encoding="UTF-8" standalone="no"?>
<!DOCTYPE svg PUBLIC "-//W3C//DTD SVG 1.1//EN" "http://www.w3.org/Graphics/SVG/1.1/DTD/svg11.dtd">
<svg width="100%" height="100%" viewBox="0 0 713 447" version="1.1" xmlns="http://www.w3.org/2000/svg" xmlns:xlink="http://www.w3.org/1999/xlink" xml:space="preserve" xmlns:serif="http://www.serif.com/" style="fill-rule:evenodd;clip-rule:evenodd;stroke-linejoin:round;stroke-miterlimit:2;">
    <g id="Artboard1" transform="matrix(1.24076,0,0,0.777789,-348.859,-82.1852)">
        <rect x="281.164" y="105.665" width="574.153" height="574.153" style="fill:none;"/>
        <g transform="matrix(14.9098,0,0,23.7848,-4086.21,-8434.3)">
            <g transform="matrix(12,0,0,12,301.518,368.292)">
                <path d="M0.298,0.012C0.239,0.012 0.189,0.001 0.148,-0.021C0.107,-0.042 0.073,-0.072 0.045,-0.111L0.106,-0.161C0.133,-0.126 0.162,-0.101 0.193,-0.085C0.224,-0.068 0.26,-0.06 0.301,-0.06C0.351,-0.06 0.389,-0.072 0.417,-0.095C0.444,-0.118 0.457,-0.151 0.457,-0.193C0.457,-0.228 0.447,-0.254 0.427,-0.273C0.407,-0.292 0.374,-0.305 0.327,-0.313L0.249,-0.326C0.185,-0.337 0.139,-0.359 0.111,-0.393C0.083,-0.426 0.069,-0.467 0.069,-0.516C0.069,-0.579 0.09,-0.627 0.131,-0.66C0.172,-0.693 0.229,-0.71 0.302,-0.71C0.408,-0.71 0.486,-0.674 0.536,-0.603L0.477,-0.552C0.456,-0.58 0.431,-0.601 0.404,-0.616C0.376,-0.631 0.342,-0.638 0.301,-0.638C0.254,-0.638 0.217,-0.628 0.192,-0.608C0.167,-0.587 0.154,-0.557 0.154,-0.518C0.154,-0.485 0.164,-0.459 0.184,-0.44C0.203,-0.421 0.237,-0.407 0.285,-0.399L0.36,-0.386C0.481,-0.365 0.542,-0.301 0.542,-0.195C0.542,-0.13 0.521,-0.08 0.478,-0.043C0.435,-0.006 0.375,0.012 0.298,0.012Z" style="fill:rgb(250,148,165);fill-rule:nonzero;"/>
            </g>
            <g transform="matrix(12,0,0,12,308.718,368.292)">
                <path d="M0.095,-0.698L0.29,-0.698C0.375,-0.698 0.438,-0.669 0.481,-0.61C0.523,-0.551 0.544,-0.464 0.544,-0.349C0.544,-0.234 0.523,-0.147 0.481,-0.088C0.438,-0.029 0.375,-0 0.29,-0L0.095,-0L0.095,-0.698ZM0.286,-0.073C0.341,-0.073 0.383,-0.092 0.412,-0.131C0.441,-0.17 0.455,-0.224 0.455,-0.295L0.455,-0.403C0.455,-0.474 0.441,-0.528 0.412,-0.567C0.383,-0.606 0.341,-0.625 0.286,-0.625L0.179,-0.625L0.179,-0.073L0.286,-0.073Z" style="fill:rgb(250,148,165);fill-rule:nonzero;"/>
            </g>
            <g transform="matrix(12,0,0,12,315.918,368.292)">
                <path d="M0.298,0.012C0.239,0.012 0.189,0.001 0.148,-0.021C0.107,-0.042 0.073,-0.072 0.045,-0.111L0.106,-0.161C0.133,-0.126 0.162,-0.101 0.193,-0.085C0.224,-0.068 0.26,-0.06 0.301,-0.06C0.351,-0.06 0.389,-0.072 0.417,-0.095C0.444,-0.118 0.457,-0.151 0.457,-0.193C0.457,-0.228 0.447,-0.254 0.427,-0.273C0.407,-0.292 0.374,-0.305 0.327,-0.313L0.249,-0.326C0.185,-0.337 0.139,-0.359 0.111,-0.393C0.083,-0.426 0.069,-0.467 0.069,-0.516C0.069,-0.579 0.09,-0.627 0.131,-0.66C0.172,-0.693 0.229,-0.71 0.302,-0.71C0.408,-0.71 0.486,-0.674 0.536,-0.603L0.477,-0.552C0.456,-0.58 0.431,-0.601 0.404,-0.616C0.376,-0.631 0.342,-0.638 0.301,-0.638C0.254,-0.638 0.217,-0.628 0.192,-0.608C0.167,-0.587 0.154,-0.557 0.154,-0.518C0.154,-0.485 0.164,-0.459 0.184,-0.44C0.203,-0.421 0.237,-0.407 0.285,-0.399L0.36,-0.386C0.481,-0.365 0.542,-0.301 0.542,-0.195C0.542,-0.13 0.521,-0.08 0.478,-0.043C0.435,-0.006 0.375,0.012 0.298,0.012Z" style="fill:rgb(250,148,165);fill-rule:nonzero;"/>
            </g>
            <g transform="matrix(12,0,0,12,301.518,380.292)">
                <path d="M0.378,-0L0.378,-0.137L0.034,-0.137L0.034,-0.211L0.336,-0.698L0.458,-0.698L0.458,-0.206L0.562,-0.206L0.562,-0.137L0.458,-0.137L0.458,-0L0.378,-0ZM0.109,-0.206L0.378,-0.206L0.378,-0.633L0.374,-0.633L0.109,-0.206Z" style="fill:rgb(37,180,151);fill-rule:nonzero;"/>
            </g>
            <g transform="matrix(12,0,0,12,308.718,380.292)">
                <path d="M0.298,0.012C0.239,0.012 0.189,0.001 0.148,-0.021C0.107,-0.042 0.073,-0.072 0.045,-0.111L0.106,-0.161C0.133,-0.126 0.162,-0.101 0.193,-0.085C0.224,-0.068 0.26,-0.06 0.301,-0.06C0.351,-0.06 0.389,-0.072 0.417,-0.095C0.444,-0.118 0.457,-0.151 0.457,-0.193C0.457,-0.228 0.447,-0.254 0.427,-0.273C0.407,-0.292 0.374,-0.305 0.327,-0.313L0.249,-0.326C0.185,-0.337 0.139,-0.359 0.111,-0.393C0.083,-0.426 0.069,-0.467 0.069,-0.516C0.069,-0.579 0.09,-0.627 0.131,-0.66C0.172,-0.693 0.229,-0.71 0.302,-0.71C0.408,-0.71 0.486,-0.674 0.536,-0.603L0.477,-0.552C0.456,-0.58 0.431,-0.601 0.404,-0.616C0.376,-0.631 0.342,-0.638 0.301,-0.638C0.254,-0.638 0.217,-0.628 0.192,-0.608C0.167,-0.587 0.154,-0.557 0.154,-0.518C0.154,-0.485 0.164,-0.459 0.184,-0.44C0.203,-0.421 0.237,-0.407 0.285,-0.399L0.36,-0.386C0.481,-0.365 0.542,-0.301 0.542,-0.195C0.542,-0.13 0.521,-0.08 0.478,-0.043C0.435,-0.006 0.375,0.012 0.298,0.012Z" style="fill:rgb(250,148,165);fill-rule:nonzero;"/>
            </g>
            <g transform="matrix(12,0,0,12,315.918,380.292)">
                <path d="M0.444,-0.093L0.439,-0.093C0.426,-0.061 0.407,-0.035 0.383,-0.017C0.359,0.003 0.325,0.012 0.281,0.012C0.206,0.012 0.15,-0.019 0.113,-0.08C0.075,-0.141 0.056,-0.229 0.056,-0.344C0.056,-0.464 0.077,-0.555 0.118,-0.617C0.159,-0.679 0.222,-0.71 0.305,-0.71C0.364,-0.71 0.411,-0.696 0.445,-0.668C0.478,-0.639 0.504,-0.602 0.522,-0.557L0.45,-0.524C0.435,-0.561 0.418,-0.589 0.397,-0.608C0.376,-0.627 0.347,-0.637 0.308,-0.637C0.253,-0.637 0.213,-0.617 0.186,-0.576C0.159,-0.535 0.145,-0.479 0.145,-0.406L0.145,-0.298C0.145,-0.223 0.157,-0.165 0.182,-0.123C0.207,-0.08 0.246,-0.059 0.3,-0.059C0.344,-0.059 0.379,-0.073 0.405,-0.1C0.431,-0.127 0.444,-0.162 0.444,-0.206L0.444,-0.278L0.297,-0.278L0.297,-0.345L0.522,-0.345L0.522,-0L0.444,-0L0.444,-0.093Z" style="fill:rgb(250,148,165);fill-rule:nonzero;"/>
            </g>
        </g>
    </g>
</svg>
