<svg xmlns="http://www.w3.org/2000/svg" xmlns:xlink="http://www.w3.org/1999/xlink" width="100.0" height="100.0" viewBox="2.388867667000063 49.342083641 4.173237692999962 2.3176167179999965" preserveAspectRatio="xMinYMin meet"><g transform="matrix(1,0,0,-1,0,101.001784)"><g><path fill-rule="evenodd" fill="#66cc99" stroke="#555555" stroke-width="0.08346475385999924" opacity="0.6" d="M 5.560759,51.221985001000064 L 5.826258,51.16656500100004 L 5.640904,50.843058 L 5.682518,50.756968001000075 L 6.021017,50.754283 L 6.270179,50.624461 L 6.177890001000037,50.540756001000034 L 6.351389,50.48861100100004 L 6.407541001000027,50.33519200100005 L 6.173332,50.2325 L 6.137668,50.129949 L 5.966125,50.173506 L 5.738055,49.901527 L 5.755,49.790555 L 5.910799,49.662218 L 5.818615,49.54638700100003 L 5.471892001000072,49.496648 L 5.269699001000049,49.69407200100005 L 4.853226,49.792918 L 4.888168,49.91159500100008 L 4.790582,49.968573 L 4.894723,50.140277 L 4.82499279700005,50.168868649000046 L 4.696945,50.090834001000076 L 4.689881,49.99523700100008 L 4.144378001000064,49.976541 L 4.229722,50.07055500100006 L 4.127646,50.135932 L 4.216111,50.26527800100007 L 4.024615,50.35931300100003 L 3.711412,50.30354100100004 L 3.620278,50.49 L 3.287775,50.52747 L 3.26040800100003,50.700957 L 3.149722,50.79 L 2.904551,50.692249 L 2.796297,50.723737001000075 L 2.599556001000053,50.850148001000036 L 2.632652,50.94599 L 2.543432026000062,51.089532983000026 L 3.36398585400002,51.37120819200004 L 3.428035,51.242711 L 3.590383,51.30584600100008 L 3.885884001000022,51.199276 L 4.23847046000003,51.350237348000064 L 4.241936953000049,51.375205950000066 L 4.431332,51.363914 L 4.382708,51.450259 L 4.641154,51.421969 L 4.773871001000032,51.505136 L 4.843992,51.459196 L 4.771385,51.414844 L 4.920951,51.393635 L 4.935994967147052,51.4055749745704 L 4.936341,51.405468 L 4.936292013323238,51.40581073178491 L 5.038807,51.487174 L 5.237977,51.26073700100005 L 5.516283,51.294864001000064 L 5.560759,51.221985001000064 z" /><path fill-rule="evenodd" fill="#66cc99" stroke="#555555" stroke-width="0.08346475385999924" opacity="0.6" d="M 4.927714,51.408135 L 4.931797,51.408036 L 4.935781,51.409386 L 4.936292013323238,51.40581073178491 L 4.935994967147052,51.4055749745704 L 4.927714,51.408135 z" /><path fill-rule="evenodd" fill="#66cc99" stroke="#555555" stroke-width="0.08346475385999924" opacity="0.6" d="M 4.866353,51.413200001000064 L 4.865763,51.414338 L 4.867075,51.41443000100003 L 4.867797,51.413311 L 4.866353,51.413200001000064 z" /><path fill-rule="evenodd" fill="#66cc99" stroke="#555555" stroke-width="0.08346475385999924" opacity="0.6" d="M 4.874836,51.416621 L 4.875285,51.41612800100006 L 4.873675,51.41559900100003 L 4.873508,51.41607000100004 L 4.874836,51.416621 z" /><path fill-rule="evenodd" fill="#66cc99" stroke="#555555" stroke-width="0.08346475385999924" opacity="0.6" d="M 4.840388,51.418958 L 4.840996,51.417972 L 4.840915,51.41747200100008 L 4.838795,51.418235 L 4.840388,51.418958 z" /><path fill-rule="evenodd" fill="#66cc99" stroke="#555555" stroke-width="0.08346475385999924" opacity="0.6" d="M 4.892247,51.424056 L 4.88942,51.42351700100005 L 4.890081001000055,51.42531000100007 L 4.891548,51.42477 L 4.892247,51.424056 z" /><path fill-rule="evenodd" fill="#66cc99" stroke="#555555" stroke-width="0.08346475385999924" opacity="0.6" d="M 4.914847,51.435268 L 4.923007,51.447466001000066 L 4.938069,51.44481100100006 L 4.93968,51.430806 L 4.914847,51.435268 z" /><path fill-rule="evenodd" fill="#66cc99" stroke="#555555" stroke-width="0.08346475385999924" opacity="0.6" d="M 4.918647,51.44411000100007 L 4.918464,51.44342500100004 L 4.918101,51.44342500100004 L 4.918371,51.44416800100004 L 4.918647,51.44411000100007 z" /><path fill-rule="evenodd" fill="#66cc99" stroke="#555555" stroke-width="0.08346475385999924" opacity="0.6" d="M 4.835471,51.448273 L 4.836206,51.44882 L 4.83664,51.44847 L 4.835897,51.447929001000034 L 4.835471,51.448273 z" /><path fill-rule="evenodd" fill="#66cc99" stroke="#555555" stroke-width="0.08346475385999924" opacity="0.6" d="M 4.928045,51.44892700100007 L 4.92894700100004,51.448215 L 4.928522,51.447963 L 4.927402,51.44856 L 4.928045,51.44892700100007 z" /><path fill-rule="evenodd" fill="#66cc99" stroke="#555555" stroke-width="0.08346475385999924" opacity="0.6" d="M 4.930666,51.45050400100007 L 4.931772,51.449262 L 4.930313001000059,51.448766 L 4.929503,51.449584 L 4.930666,51.45050400100007 z" /><path fill-rule="evenodd" fill="#66cc99" stroke="#555555" stroke-width="0.08346475385999924" opacity="0.6" d="M 4.943093,51.44020800100003 L 4.941979,51.43919400100003 L 4.942203,51.438510001000054 L 4.940794,51.439414 L 4.943093,51.44020800100003 z" /><path fill-rule="evenodd" fill="#66cc99" stroke="#555555" stroke-width="0.08346475385999924" opacity="0.6" d="M 4.939818,51.439797001000045 L 4.941562,51.440006 L 4.941597,51.439788 L 4.939883,51.439572 L 4.939818,51.439797001000045 z" /><path fill-rule="evenodd" fill="#66cc99" stroke="#555555" stroke-width="0.08346475385999924" opacity="0.6" d="M 4.940324,51.44187000100004 L 4.939288,51.443686 L 4.940003,51.44301900100004 L 4.940324,51.44187000100004 z" /><path fill-rule="evenodd" fill="#66cc99" stroke="#555555" stroke-width="0.08346475385999924" opacity="0.6" d="M 4.950108,51.445133 L 4.948761001000037,51.444777 L 4.949667,51.443743 L 4.943965,51.44383700100008 L 4.950108,51.445133 z" /><path fill-rule="evenodd" fill="#66cc99" stroke="#555555" stroke-width="0.08346475385999924" opacity="0.6" d="M 4.941088,51.445373 L 4.942197,51.445566 L 4.942341,51.445076 L 4.941208,51.444875 L 4.941088,51.445373 z" /><path fill-rule="evenodd" fill="#66cc99" stroke="#555555" stroke-width="0.08346475385999924" opacity="0.6" d="M 4.933275412000057,51.44830317700007 L 4.933703,51.44726 L 4.931996,51.44670700100005 L 4.931531,51.44760400100006 L 4.933275412000057,51.44830317700007 z" /><path fill-rule="evenodd" fill="#66cc99" stroke="#555555" stroke-width="0.08346475385999924" opacity="0.6" d="M 4.94943,51.453521 L 4.951769,51.452428 L 4.940064,51.44558 L 4.933041,51.449634 L 4.94943,51.453521 z" /><path fill-rule="evenodd" fill="#66cc99" stroke="#555555" stroke-width="0.08346475385999924" opacity="0.6" d="M 4.94267,51.453328 L 4.945024,51.453613 L 4.945175,51.453178001000026 L 4.942859,51.452783 L 4.94267,51.453328 z" /><path fill-rule="evenodd" fill="#66cc99" stroke="#555555" stroke-width="0.08346475385999924" opacity="0.6" d="M 4.949971,51.454638001000035 L 4.949398,51.453886 L 4.949078,51.45507000100008 L 4.949827,51.45520400100003 L 4.949971,51.454638001000035 z" /><path fill-rule="evenodd" fill="#66cc99" stroke="#555555" stroke-width="0.08346475385999924" opacity="0.6" d="M 4.940781,51.45585200100004 L 4.941451,51.45583000100004 L 4.941825,51.45555500100005 L 4.940672,51.455566 L 4.940781,51.45585200100004 z" /></g></g></svg>