<svg xmlns="http://www.w3.org/2000/svg" xmlns:xlink="http://www.w3.org/1999/xlink" width="300" height="300" viewBox="-602142.785139074 -1164011.405805877 7883.036337178666 7479.359530444257" preserveAspectRatio="xMinYMin meet"><g transform="matrix(1,0,0,-1,0,-2320543.4520813096)"><path fill-rule="evenodd" fill="#66cc99" stroke="#555555" stroke-width="52.553575581191105" opacity="0.6" d="M -595085.0373411224,-1162788.0840026 L -595286.790600533,-1163007.2333962163 L -595516.6118605797,-1163200.038359115 L -595772.2878170175,-1163364.6420731577 L -596051.3561705671,-1163499.4593159184 L -596351.1293401617,-1163603.1917217085 L -596668.7203466016,-1163674.8402922158 L -597001.0706151539,-1163713.715012298 L -597344.9794302924,-1163719.4414970926 L -597697.1347624728,-1163691.9645975395 L -598054.1451636878,-1163631.548930332 L -598412.5724283367,-1163538.7763321782 L -598768.9647061132,-1163414.5402541896 L -599119.8897437587,-1163260.0371569083 L -599461.9679421795,-1163076.754990595 L -599791.9049014909,-1162866.4588615354 L -600106.5231474956,-1162631.1740368612 L -600402.7927353255,-1162373.1664385851 L -600677.8604265471,-1162094.9208199978 L -600929.0771682948,-1161799.116839313 L -601154.0236071929,-1161488.6032506519 L -601350.5333852944,-1161166.3704685778 L -601516.7140066297,-1160835.5217718831 L -601650.9650607415,-1160499.2434141352 L -601751.9936357428,-1160160.7739398465 L -601818.8267721528,-1159823.3729949226 L -601850.8208302896,-1159490.2899345425 L -601847.6676897797,-1159164.732531413 L -601809.397717382,-1158849.8360810801 L -601736.3794724863,-1158548.6332079018 L -601629.3161625477,-1158264.0246608723 L -601489.238864466,-1157998.7513756556 L -601317.4966001465,-1157755.3680790805 L -601115.7433404363,-1157536.218685093 L -600885.9220803896,-1157343.4137221947 L -600630.246123952,-1157178.8100081517 L -600351.1777707018,-1157043.9927657621 L -600051.4046008078,-1156940.2603596007 L -599733.8135943677,-1156868.6117890936 L -599401.463326115,-1156829.7370693826 L -599057.5545106771,-1156824.010584217 L -598705.3991784964,-1156851.4874837697 L -598348.3887775812,-1156911.9031513485 L -597989.9615126326,-1157004.6757491312 L -597633.5692348563,-1157128.9118271198 L -597282.6441975104,-1157283.4149247722 L -596940.5659990894,-1157466.6970910854 L -596610.629039778,-1157676.9932201449 L -596296.0107937733,-1157912.2780448194 L -595999.7412059434,-1158170.2856430952 L -595724.6735147218,-1158448.5312616827 L -595473.4567729741,-1158744.3352423678 L -595248.5103337764,-1159054.8488306575 L -595052.0005556749,-1159377.0816127316 L -594885.8199346395,-1159707.9303097972 L -594751.5688802277,-1160044.208667174 L -594650.5403052267,-1160382.678141463 L -594583.7071691161,-1160720.0790867582 L -594551.7131106796,-1161053.1621467671 L -594554.8662511898,-1161378.7195498962 L -594593.136223887,-1161693.6160006006 L -594666.1544684832,-1161994.8188734078 L -594773.2177784218,-1162279.427420437 L -594913.2950765035,-1162544.700705654 L -595085.0373411224,-1162788.0840026 z" /></g></svg>