<svg xmlns="http://www.w3.org/2000/svg" xmlns:xlink="http://www.w3.org/1999/xlink" width="178.49046461528633" height="258.8738442445174" viewBox="449474.0825025702 5412675.014429549 178.49046461528633 258.8738442445174" preserveAspectRatio="xMinYMin meet"><g transform="matrix(1,0,0,-1,0,10825608.902703341)"><path fill-rule="evenodd" fill="#66cc99" stroke="#555555" stroke-width="2.0" opacity="0.6" d="M 449483.67042272736,5412864.072456881 L 449488.88104846893,5412863.625060784 L 449510.6982350738,5412861.748884251 L 449510.82232527074,5412863.304151067 L 449510.9970363802,5412863.969594091 L 449511.66399917164,5412863.919089544 L 449511.51741561835,5412863.119987088 L 449511.4365228922,5412861.475392743 L 449511.92777931073,5412861.459829652 L 449511.847098327,5412860.649013683 L 449514.8591315278,5412860.388296289 L 449517.71725811594,5412860.140090327 L 449517.7760377807,5412860.962221627 L 449518.2373559536,5412860.880227586 L 449518.4419134186,5412862.412532236 L 449518.4869309123,5412863.334841713 L 449519.14666073857,5412863.295520584 L 449519.1506655881,5412862.117074884 L 449519.0673703245,5412861.017238655 L 449541.1115176094,5412859.094659338 L 449545.97766938613,5412858.672666636 L 449549.75438190147,5412901.605985229 L 449547.6073362831,5412901.814392851 L 449548.567713732,5412913.122884805 L 449550.67869009526,5412912.981506093 L 449550.8025672962,5412914.514541514 L 449551.9241080391,5412914.448813682 L 449551.9348595453,5412914.826696844 L 449552.39014691365,5412914.889282009 L 449552.7947021043,5412915.0190284075 L 449553.1844895202,5412915.137791312 L 449553.567345395,5412915.301085203 L 449553.995208161,5412915.575142834 L 449554.3717355797,5412915.8496647095 L 449554.6825619913,5412916.158131939 L 449554.9271848004,5412916.444963708 L 449555.21068708715,5412916.976019454 L 449555.4137206183,5412917.530037004 L 449555.5064483717,5412918.051700801 L 449555.5475392717,5412918.540480322 L 449555.62429303036,5412918.917766655 L 449555.70998869033,5412919.472845257 L 449556.1422696238,5412919.424468057 L 449556.2183238966,5412920.535487359 L 449562.79918093735,5412919.9534816 L 449562.68676143093,5412918.87614223 L 449563.11170885165,5412918.827831876 L 449563.098344999,5412918.160928504 L 449563.126774911,5412918.0606178325 L 449563.1995080086,5412917.993257815 L 449563.4046481416,5412917.969168958 L 449564.15418411116,5412918.129148356 L 449564.8460561479,5412918.400819888 L 449565.3473547241,5412918.685331517 L 449565.7600469264,5412918.903941842 L 449569.385767247,5412920.005104809 L 449573.1341477573,5412920.882819934 L 449576.0881864898,5412921.512024904 L 449581.89650447795,5412922.282190066 L 449587.2816820141,5412922.489214591 L 449587.38605958334,5412924.300353636 L 449591.37312920834,5412923.997514584 L 449591.18928952987,5412921.508952306 L 449591.41653090715,5412921.495781836 L 449591.41823944415,5412920.873210528 L 449596.2987062339,5412920.417780314 L 449596.3557664515,5412921.050937689 L 449596.6122418503,5412921.026386226 L 449596.8473139128,5412923.5033686785 L 449600.79761606036,5412923.189751511 L 449600.6270395119,5412921.356976227 L 449604.7781654215,5412920.541279472 L 449608.5895365421,5412919.46184521 L 449610.842163415,5412918.76335628 L 449613.8387027025,5412917.602349282 L 449616.76150549244,5412916.397541602 L 449618.4267426552,5412915.6265414115 L 449622.3539571713,5412913.56776845 L 449623.31717624434,5412913.025450806 L 449623.469776855,5412912.868433806 L 449623.6237828398,5412912.867043071 L 449623.7196217933,5412912.921762948 L 449623.7717601848,5412913.010228663 L 449623.8136481859,5412913.587937933 L 449624.2902329334,5412913.572517156 L 449624.38094090414,5412914.683404835 L 449630.9178089899,5412914.101876877 L 449630.8739143512,5412913.301844328 L 449632.98429004755,5412913.093799805 L 449632.85340290813,5412911.594177414 L 449633.44139722886,5412911.733390482 L 449633.3687635781,5412911.811865739 L 449634.9688831225,5412913.576149886 L 449636.64116364875,5412911.960194462 L 449635.12241655105,5412910.272994659 L 449634.22338476323,5412911.42616944 L 449632.6486707013,5412910.8511823565 L 449633.1723898306,5412908.745328067 L 449633.6809331814,5412907.395571448 L 449632.0965758859,5412906.564979016 L 449632.24154219666,5412906.37467999 L 449632.10109926015,5412906.253660282 L 449632.1368641002,5412906.153283759 L 449632.03248709446,5412905.965236017 L 449632.0170169093,5412905.876439151 L 449632.0597139131,5412905.731531769 L 449633.3081509492,5412904.28615824 L 449634.4403545097,5412902.964122151 L 449634.68216361897,5412902.939704867 L 449634.78533626033,5412902.994358722 L 449634.90890402586,5412902.8709553685 L 449635.0347800814,5412903.003223728 L 449635.1948152892,5412902.857257005 L 449636.31493905303,5412904.25901188 L 449639.6449246257,5412902.661442981 L 449640.48687111214,5412904.121295262 L 449639.5787976075,5412905.085560614 L 449641.6630449916,5412906.045047367 L 449642.7772715006,5412904.356312055 L 449640.7423521288,5412903.174038237 L 449640.611049216,5412903.253043019 L 449640.4141531476,5412902.565562294 L 449641.946280098,5412902.4850290585 L 449641.7802405506,5412900.340933944 L 449642.58633828926,5412900.2669548765 L 449641.96324695816,5412893.8024464715 L 449640.8566696185,5412893.901372244 L 449635.5822474328,5412832.038043762 L 449638.0595410284,5412831.848923279 L 449638.0408595018,5412831.404409284 L 449640.52548717073,5412831.215223694 L 449640.2731551761,5412828.449352107 L 449641.3721107519,5412828.317144039 L 449641.25518949685,5412826.739576128 L 449642.9850470283,5412826.6239074115 L 449642.7462798089,5412823.735625579 L 449642.5234843125,5412820.9917214485 L 449640.6764859113,5412821.130681849 L 449640.60436957626,5412819.641646034 L 449639.4024388879,5412819.741432611 L 449639.2017432166,5412817.008446167 L 449636.52673296514,5412817.232702173 L 449636.31247223227,5412814.6221260065 L 449636.0776919613,5412814.613128503 L 449635.391206935,5412806.815145865 L 449635.60368519445,5412806.790993489 L 449635.31619423494,5412803.380649782 L 449635.09618137043,5412803.382636058 L 449634.4531948267,5412795.528675599 L 449634.6365391388,5412795.527020349 L 449634.33427926747,5412792.105693004 L 449634.1290338704,5412792.118663054 L 449633.46484657715,5412784.353830736 L 449633.6555250439,5412784.352109246 L 449633.4263937883,5412781.719433408 L 449636.1014209998,5412781.495176044 L 449635.8997192581,5412778.651028268 L 449637.0362567257,5412778.618533815 L 449636.91350504366,5412777.207774697 L 449638.6796454757,5412777.047309087 L 449638.4516202225,5412774.536910838 L 449638.16603648325,5412771.337774179 L 449636.4140600939,5412771.442526725 L 449636.3054739868,5412769.9760544235 L 449635.17044009484,5412770.175291397 L 449634.93226927775,5412767.353707063 L 449632.42581256223,5412767.565325888 L 449632.42873048485,5412767.076148678 L 449629.8196003863,5412767.288695651 L 449624.6260454385,5412705.469124302 L 449625.784097605,5412705.380848207 L 449625.21140460705,5412698.815834385 L 449624.397943989,5412698.889881964 L 449624.2467621461,5412696.7678878335 L 449622.6781100574,5412696.870988961 L 449622.9853372693,5412695.96773253 L 449623.03737723606,5412696.045082065 L 449624.77562591207,5412694.41741188 L 449623.2275823561,5412692.741596499 L 449621.4324691968,5412694.569887813 L 449622.5781581991,5412695.548960886 L 449621.9609937083,5412697.055337553 L 449619.946886898,5412696.562140484 L 449618.43871866807,5412696.0532580735 L 449617.65367872006,5412697.650087786 L 449617.4612906789,5412697.462835124 L 449617.3088849697,5412697.642084512 L 449617.2127411392,5412697.554016263 L 449617.09660338896,5412697.688469868 L 449616.84715035616,5412697.679605605 L 449615.4577352982,5412696.513744743 L 449614.0239146523,5412695.3038170105 L 449614.0138700707,5412695.003746988 L 449614.07193893724,5412694.936520154 L 449613.96102680376,5412694.837468275 L 449614.05506242963,5412694.692097156 L 449613.9148146695,5412694.593310224 L 449615.29801661795,5412693.446877436 L 449614.378878989,5412691.5652775355 L 449613.7199415229,5412690.070425025 L 449615.1281581061,5412689.257278229 L 449616.2143748868,5412690.1479506185 L 449617.32080266706,5412688.403696475 L 449615.46040861116,5412687.064215939 L 449614.2101139275,5412689.121047575 L 449614.32072498364,5412689.186750986 L 449613.7730910469,5412689.458506467 L 449613.6485249513,5412687.847657164 L 449611.4863254577,5412688.011707396 L 449611.44292906555,5412687.267256037 L 449604.8984623957,5412687.848871055 L 449604.98897594935,5412688.937525766 L 449604.5059418415,5412689.053059722 L 449604.5606933101,5412689.43054534 L 449604.5989694958,5412689.608072617 L 449604.5414027555,5412689.73088034 L 449604.3737269281,5412689.8435656335 L 449604.19027872104,5412689.834105697 L 449603.46974788094,5412689.640507303 L 449602.6220300327,5412689.1701313285 L 449600.81276603666,5412688.619505331 L 449597.58413957,5412687.648137317 L 449593.73212909856,5412686.682403454 L 449590.3232660036,5412686.057297078 L 449586.1306774322,5412685.550445473 L 449580.3267357528,5412685.291617745 L 449580.32784101204,5412684.602349706 L 449576.2967979027,5412684.927825402 L 449576.4195663769,5412686.338583104 L 449570.9662473771,5412686.732503002 L 449570.86578072567,5412685.354895004 L 449566.86387329566,5412685.657880034 L 449566.9359078913,5412686.324252794 L 449564.6663129751,5412686.778335735 L 449562.16364109446,5412687.412399851 L 449560.02013056946,5412688.020983725 L 449556.41506428015,5412689.220870763 L 449553.900641493,5412690.177439789 L 449551.7741126546,5412691.041565836 L 449549.2033322462,5412692.254339157 L 449546.7870676462,5412693.521301644 L 449544.1300921956,5412694.934964047 L 449543.9907479902,5412694.93622428 L 449543.85049896775,5412694.837439101 L 449543.77565188025,5412694.671360023 L 449543.7859966721,5412694.1932326 L 449543.08907447907,5412694.177301526 L 449543.2259000398,5412693.086591521 L 449536.6668787795,5412693.679535491 L 449536.7721739575,5412694.779172678 L 449536.2954700794,5412694.783484644 L 449536.3540470338,5412695.583383606 L 449536.34571388876,5412696.283834195 L 449536.2855406757,5412696.929168368 L 449536.174130714,5412697.586083068 L 449535.95281281247,5412698.255109006 L 449535.66327772563,5412698.680176544 L 449535.1692984536,5412699.207147025 L 449534.6375436876,5412699.6121715205 L 449534.0386778037,5412699.8955154065 L 449533.46090867126,5412700.078614915 L 449533.49356261635,5412700.445182742 L 449532.3722806281,5412700.544262435 L 449532.5118394902,5412702.188325901 L 449530.4231875316,5412702.373976488 L 449531.3980906808,5412713.66009745 L 449533.50090341247,5412713.418733721 L 449537.16807661625,5412756.386379051 L 449486.46780440013,5412760.725072889 L 449486.34724242584,5412760.370418295 L 449486.0722675962,5412759.972693572 L 449485.6662904804,5412759.687325738 L 449485.26855303056,5412759.501936954 L 449484.7840175564,5412759.450738974 L 449484.3823685349,5412759.64336604 L 449483.67042272736,5412864.072456881 z" /></g></svg>